<?xml version="1.0" ?><svg viewBox="0 0 32 32" xmlns="http://www.w3.org/2000/svg"><defs><style>.cls-1{fill:#101820;}</style></defs><title/><g data-name="Layer 59" id="Layer_59"><path class="cls-1" d="M30,31H2a1,1,0,0,1-1-1V12a1,1,0,0,1,2,0V29H29V12a1,1,0,0,1,2,0V30A1,1,0,0,1,30,31Z"/><path class="cls-1" d="M30,13a1,1,0,0,1-.58-.19L16,3.23,2.58,12.81a1,1,0,0,1-1.16-1.62l14-10a1,1,0,0,1,1.16,0l14,10A1,1,0,0,1,30,13Z"/><path class="cls-1" d="M16,22.54A2.93,2.93,0,0,1,14.26,22L1.42,12.81a1,1,0,0,1,1.16-1.62l12.84,9.17a1,1,0,0,0,1.16,0l12.84-9.17a1,1,0,1,1,1.16,1.62L17.74,22A2.93,2.93,0,0,1,16,22.54Z"/><rect class="cls-1" height="2" transform="translate(-12.78 7.8) rotate(-33.69)" width="10.82" x="1.09" y="24"/><rect class="cls-1" height="10.82" transform="translate(-9.45 32.35) rotate(-56.31)" width="2" x="24.5" y="19.59"/><rect class="cls-1" height="2" width="14" x="9" y="11"/></g></svg>