<?xml version="1.0" ?><svg viewBox="0 0 64 64" xmlns="http://www.w3.org/2000/svg"><g data-name="Layer 32" id="Layer_32"><path d="M54,8H39A7,7,0,0,0,25,8H10a4,4,0,0,0-4,4v3a1,1,0,0,0,1,1h3.062l2.749,43.069A4.207,4.207,0,0,0,17,63H47a4.207,4.207,0,0,0,4.189-3.931L53.938,16H57a1,1,0,0,0,1-1V12A4,4,0,0,0,54,8ZM32,3a5.006,5.006,0,0,1,5,5H27A5.006,5.006,0,0,1,32,3ZM49.193,58.942A2.2,2.2,0,0,1,47,61h-.957l.381-8.958-2-.084L44.042,61h-5l.381-8.958-2-.084L37.042,61H33V52H31v9H26.958l-.384-9.042-2,.084L24.957,61h-5l-.384-9.042-2,.084L17.957,61H17a2.2,2.2,0,0,1-2.193-2.058L12.066,16h3.985l.419,8.052,2-.1L18.053,16h5l.419,8.052,2-.1L25.053,16H31v8h2V16h5.947l-.414,7.948,2,.1L40.949,16h5l-.414,7.948,2,.1L47.949,16h3.985ZM56,14H8V12a2,2,0,0,1,2-2H54a2,2,0,0,1,2,2Z"/><path d="M47,28H17a1,1,0,0,0-1,1V47a1,1,0,0,0,1,1H47a1,1,0,0,0,1-1V29A1,1,0,0,0,47,28ZM32,38.76,20.055,30h23.89Zm-6.147-2.027L18,44.586V30.974Zm1.632,1.2,3.924,2.878a1,1,0,0,0,1.182,0l3.924-2.878L44.586,46H19.414Zm10.662-1.2L46,30.974V44.586Z"/></g></svg>