<svg width="90" height="90" viewBox="0 0 90 90" fill="none" xmlns="http://www.w3.org/2000/svg">
<path d="M1 45C1 39.2218 2.13809 33.5003 4.3493 28.1619C6.56051 22.8236 9.80152 17.9731 13.8873 13.8873C17.9731 9.80153 22.8236 6.56051 28.1619 4.3493C33.5003 2.13809 39.2218 1 45 1C50.7782 1 56.4997 2.13809 61.8381 4.3493C67.1764 6.56051 72.0269 9.80153 76.1127 13.8873C80.1985 17.9731 83.4395 22.8236 85.6507 28.1619C87.8619 33.5003 89 39.2218 89 45C89 56.6695 84.3643 67.8611 76.1127 76.1127C67.8611 84.3643 56.6695 89 45 89C33.3305 89 22.1389 84.3643 13.8873 76.1127C5.6357 67.8611 1 56.6695 1 45ZM45 21.5C43.7402 21.5 42.532 22.0004 41.6412 22.8912C40.7504 23.782 40.25 24.9902 40.25 26.25V40.25H26.25C24.9902 40.25 23.782 40.7504 22.8912 41.6412C22.0004 42.532 21.5 43.7402 21.5 45C21.5 46.2598 22.0004 47.468 22.8912 48.3588C23.782 49.2496 24.9902 49.75 26.25 49.75H40.25V63.75C40.25 65.0098 40.7504 66.218 41.6412 67.1088C42.532 67.9996 43.7402 68.5 45 68.5C46.2598 68.5 47.468 67.9996 48.3588 67.1088C49.2496 66.218 49.75 65.0098 49.75 63.75V49.75H63.75C65.0098 49.75 66.218 49.2496 67.1088 48.3588C67.9996 47.468 68.5 46.2598 68.5 45C68.5 43.7402 67.9996 42.532 67.1088 41.6412C66.218 40.7504 65.0098 40.25 63.75 40.25H49.75V26.25C49.75 24.9902 49.2496 23.782 48.3588 22.8912C47.468 22.0004 46.2598 21.5 45 21.5Z" fill="#4EB7EB" stroke="#627684" stroke-width="2"/>
</svg>
